<svg width="37" height="41" viewBox="0 0 37 41" fill="none" xmlns="http://www.w3.org/2000/svg">
<mask id="mask0_35_1607" style="mask-type:alpha" maskUnits="userSpaceOnUse" x="0" y="0" width="37" height="41">
<path d="M14.8369 0.930413C16.9856 -0.310137 19.6329 -0.310138 21.7816 0.930412L33.1461 7.49174C35.2948 8.73229 36.6185 11.0249 36.6185 13.506V26.6287C36.6185 29.1098 35.2948 31.4024 33.1462 32.643L21.7816 39.2043C19.6329 40.4448 16.9856 40.4448 14.8369 39.2043L3.47235 32.643C1.32365 31.4024 0 29.1098 0 26.6287V13.506C0 11.0249 1.32365 8.73229 3.47235 7.49174L14.8369 0.930413Z" fill="#C4C4C4"/>
</mask>
<g mask="url(#mask0_35_1607)">
<rect width="23.1744" height="23.1744" transform="matrix(0.866025 0.5 -0.866025 0.5 18.3096 -1.41901)" fill="#CFCFCF"/>
<rect width="21.3236" height="21.3236" transform="matrix(0.866025 0.5 -2.20305e-08 1 -0.157715 10.3359)" fill="#767676"/>
<rect width="21.3236" height="21.3236" transform="matrix(0.866025 -0.5 2.20305e-08 1 18.3096 21.0005)" fill="#201F22"/>
</g>
</svg>
